<svg width="74" height="43" viewBox="0 0 74 43" fill="none" xmlns="http://www.w3.org/2000/svg">
<path d="M1.19204 16.875V15.3636H10.1977V16.875H6.56704V27H4.81704V16.875H1.19204ZM12.9878 27V15.3636H20.2832V16.875H14.7435V20.4205H19.9026V21.9261H14.7435V25.4886H20.3514V27H12.9878ZM24.4114 27H22.5477L26.7352 15.3636H28.7636L32.9511 27H31.0875L27.7977 17.4773H27.7068L24.4114 27ZM24.7239 22.4432H30.7693V23.9205H24.7239V22.4432ZM35.4315 15.3636H37.5622L41.2668 24.4091H41.4031L45.1077 15.3636H47.2384V27H45.5679V18.5795H45.4599L42.0281 26.983H40.6418L37.2099 18.5739H37.102V27H35.4315V15.3636Z" fill="white"/>
<path d="M61.9933 17.2727H73.0089L67.4989 26.5455L61.9933 17.2727Z" fill="white"/>
</svg>
