<svg width="55" height="55" viewBox="0 0 55 55" fill="none" xmlns="http://www.w3.org/2000/svg">
<path d="M27.5 49.5C39.6503 49.5 49.5 39.6503 49.5 27.5C49.5 15.3497 39.6503 5.5 27.5 5.5C15.3497 5.5 5.5 15.3497 5.5 27.5C5.5 39.6503 15.3497 49.5 27.5 49.5Z" stroke="black" stroke-width="1.65"/>
<path d="M27.5 38.5C33.5751 38.5 38.5 33.5751 38.5 27.5C38.5 21.4249 33.5751 16.5 27.5 16.5C21.4249 16.5 16.5 21.4249 16.5 27.5C16.5 33.5751 21.4249 38.5 27.5 38.5Z" stroke="black" stroke-width="1.65"/>
<path d="M16.5 27.5H38.5M27.5 16.5V38.5M22 22L33 33M33 22L22 33" stroke="black" stroke-width="1.65"/>
</svg>
