<svg width="1920" height="69" viewBox="0 0 1920 69" fill="none" xmlns="http://www.w3.org/2000/svg">
<path d="M273.192 42.3037H258.035L255.485 47.4387H249.358L262.249 22.1533H269.155L281.974 47.4387H275.742L273.192 42.3037ZM270.996 37.877L265.684 27.1821H265.542L260.23 37.877H270.996Z" fill="white"/>
<path d="M243.855 33.9107C245.059 34.2884 246.003 34.9613 246.688 35.9293C247.396 36.8736 247.751 38.2902 247.751 40.1789C247.751 42.6343 247.054 44.464 245.661 45.668C244.268 46.8485 242.073 47.4387 239.074 47.4387H219.738V22.1533H238.685C244.138 22.1533 246.865 24.3254 246.865 28.6694C246.865 30.0152 246.605 31.113 246.086 31.9629C245.567 32.8129 244.823 33.4031 243.855 33.7336V33.9107ZM237.339 32.3879C238.519 32.3879 239.381 32.1518 239.924 31.6796C240.491 31.1838 240.774 30.4283 240.774 29.4131C240.774 28.3743 240.491 27.6188 239.924 27.1467C239.381 26.6745 238.519 26.4384 237.339 26.4384H225.334V32.3879H237.339ZM237.693 43.1537C239.062 43.1537 240.054 42.8822 240.668 42.3391C241.305 41.7961 241.624 40.9344 241.624 39.7539C241.624 38.5735 241.305 37.7118 240.668 37.1687C240.054 36.6021 239.062 36.3188 237.693 36.3188H225.334V43.1537H237.693Z" fill="white"/>
<path d="M208.706 47.4387V22.1533H214.301V47.4387H208.706Z" fill="white"/>
<path d="M196.727 42.3037H181.57L179.02 47.4387H172.894L185.784 22.1533H192.69L205.51 47.4387H199.277L196.727 42.3037ZM194.531 37.877L189.219 27.1821H189.078L183.766 37.877H194.531Z" fill="white"/>
<path d="M164.214 29.802C164.096 28.2674 163.376 27.1932 162.054 26.5793C160.755 25.9655 158.902 25.6586 156.494 25.6586C151.984 25.6586 149.73 26.7446 149.73 28.9166C149.73 29.7902 150.037 30.4158 150.651 30.7936C151.264 31.1713 152.256 31.431 153.625 31.5727L163.187 32.4226C165.831 32.6587 167.85 33.3552 169.243 34.512C170.636 35.6452 171.332 37.4277 171.332 39.8595C171.332 42.8814 170.116 45.0181 167.685 46.2694C165.253 47.5206 161.664 48.1463 156.919 48.1463C152.315 48.1463 148.797 47.4734 146.365 46.1277C143.934 44.7584 142.671 42.362 142.576 38.9387H148.844C148.986 40.8274 149.742 42.126 151.111 42.8342C152.504 43.5189 154.511 43.8612 157.131 43.8612C162.302 43.8612 164.887 42.6572 164.887 40.249C164.887 39.2102 164.556 38.4665 163.895 38.018C163.258 37.5694 162.313 37.2861 161.062 37.168L151.536 36.2119C148.868 35.9522 146.838 35.2911 145.445 34.2287C144.075 33.1663 143.391 31.5136 143.391 29.2708C143.391 24.0531 147.806 21.4443 156.635 21.4443C160.932 21.4443 164.285 22.0818 166.693 23.3567C169.125 24.6316 170.388 26.78 170.482 29.802H164.214Z" fill="white"/>
<path d="M1269.38 27.0687H1271.38L1274.41 32.3585H1274.54L1277.58 27.0687H1279.57L1275.35 34.1369V38.7051H1273.6V34.1369L1269.38 27.0687ZM1282.76 38.8755C1282.06 38.8755 1281.43 38.6956 1280.88 38.3358C1280.33 37.9721 1279.9 37.4551 1279.58 36.7846C1279.27 36.1104 1279.12 35.3017 1279.12 34.3585C1279.12 33.4153 1279.27 32.6085 1279.59 31.938C1279.91 31.2676 1280.34 30.7543 1280.9 30.3983C1281.45 30.0422 1282.08 29.8642 1282.78 29.8642C1283.32 29.8642 1283.75 29.9551 1284.08 30.1369C1284.42 30.3149 1284.67 30.5233 1284.86 30.7619C1285.04 31.0005 1285.19 31.2108 1285.29 31.3926H1285.39V27.0687H1287.09V38.7051H1285.43V37.3471H1285.29C1285.19 37.5327 1285.04 37.7449 1284.84 37.9835C1284.65 38.2221 1284.39 38.4305 1284.06 38.6085C1283.73 38.7865 1283.3 38.8755 1282.76 38.8755ZM1283.14 37.4267C1283.63 37.4267 1284.04 37.2979 1284.38 37.0403C1284.72 36.7789 1284.98 36.4172 1285.15 35.9551C1285.33 35.493 1285.42 34.9551 1285.42 34.3414C1285.42 33.7354 1285.33 33.2051 1285.16 32.7505C1284.98 32.296 1284.73 31.9418 1284.39 31.688C1284.05 31.4342 1283.64 31.3074 1283.14 31.3074C1282.63 31.3074 1282.2 31.4399 1281.86 31.7051C1281.52 31.9702 1281.26 32.332 1281.09 32.7903C1280.92 33.2486 1280.83 33.7657 1280.83 34.3414C1280.83 34.9248 1280.92 35.4494 1281.09 35.9153C1281.27 36.3812 1281.53 36.7505 1281.87 37.0233C1282.21 37.2922 1282.64 37.4267 1283.14 37.4267ZM1293.11 38.8812C1292.25 38.8812 1291.51 38.6975 1290.89 38.3301C1290.28 37.9589 1289.8 37.438 1289.46 36.7676C1289.13 36.0933 1288.96 35.3036 1288.96 34.3983C1288.96 33.5043 1289.13 32.7164 1289.46 32.0346C1289.8 31.3528 1290.27 30.8206 1290.87 30.438C1291.48 30.0555 1292.18 29.8642 1293 29.8642C1293.49 29.8642 1293.97 29.9456 1294.43 30.1085C1294.89 30.2714 1295.3 30.527 1295.67 30.8755C1296.04 31.224 1296.33 31.6767 1296.54 32.2335C1296.75 32.7865 1296.86 33.4589 1296.86 34.2505V34.8528H1289.92V33.5801H1295.19C1295.19 33.1331 1295.1 32.7373 1294.92 32.3926C1294.74 32.0441 1294.48 31.7695 1294.15 31.5687C1293.83 31.368 1293.45 31.2676 1293.01 31.2676C1292.53 31.2676 1292.11 31.385 1291.76 31.6199C1291.4 31.8509 1291.13 32.1539 1290.94 32.5289C1290.75 32.9002 1290.65 33.3036 1290.65 33.7392V34.7335C1290.65 35.3168 1290.76 35.813 1290.96 36.2221C1291.17 36.6312 1291.46 36.9437 1291.83 37.1596C1292.2 37.3717 1292.64 37.4778 1293.13 37.4778C1293.45 37.4778 1293.75 37.4324 1294.01 37.3414C1294.28 37.2467 1294.51 37.1066 1294.7 36.921C1294.89 36.7354 1295.04 36.5062 1295.14 36.2335L1296.75 36.5233C1296.62 36.9967 1296.39 37.4115 1296.06 37.7676C1295.73 38.1199 1295.31 38.3945 1294.81 38.5914C1294.32 38.7846 1293.75 38.8812 1293.11 38.8812ZM1300.28 27.0687V38.7051H1298.58V27.0687H1300.28ZM1308.95 32.1085L1307.41 32.3812C1307.34 32.1842 1307.24 31.9967 1307.1 31.8187C1306.97 31.6407 1306.78 31.4949 1306.54 31.3812C1306.31 31.2676 1306.02 31.2108 1305.66 31.2108C1305.18 31.2108 1304.78 31.3187 1304.46 31.5346C1304.14 31.7467 1303.98 32.0214 1303.98 32.3585C1303.98 32.6502 1304.08 32.885 1304.3 33.063C1304.52 33.2411 1304.86 33.3869 1305.35 33.5005L1306.73 33.8187C1307.54 34.0043 1308.13 34.2903 1308.53 34.6767C1308.92 35.063 1309.12 35.5649 1309.12 36.1824C1309.12 36.7051 1308.97 37.171 1308.66 37.5801C1308.36 37.9854 1307.95 38.3036 1307.41 38.5346C1306.87 38.7657 1306.25 38.8812 1305.55 38.8812C1304.57 38.8812 1303.78 38.6729 1303.16 38.2562C1302.54 37.8358 1302.16 37.2392 1302.02 36.4664L1303.66 36.2164C1303.77 36.6445 1303.98 36.9683 1304.29 37.188C1304.61 37.4039 1305.03 37.5119 1305.54 37.5119C1306.1 37.5119 1306.54 37.3964 1306.87 37.1653C1307.21 36.9305 1307.37 36.6445 1307.37 36.3074C1307.37 36.0346 1307.27 35.8055 1307.07 35.6199C1306.87 35.4342 1306.56 35.2941 1306.14 35.1994L1304.66 34.8755C1303.85 34.6899 1303.25 34.3945 1302.86 33.9892C1302.47 33.5839 1302.28 33.0706 1302.28 32.4494C1302.28 31.9342 1302.42 31.4835 1302.71 31.0971C1303 30.7108 1303.4 30.4096 1303.9 30.1937C1304.41 29.974 1304.99 29.8642 1305.65 29.8642C1306.59 29.8642 1307.33 30.0687 1307.87 30.4778C1308.42 30.8831 1308.77 31.4267 1308.95 32.1085ZM1314.59 38.8812C1313.73 38.8812 1312.99 38.6975 1312.37 38.3301C1311.75 37.9589 1311.27 37.438 1310.93 36.7676C1310.6 36.0933 1310.43 35.3036 1310.43 34.3983C1310.43 33.5043 1310.6 32.7164 1310.93 32.0346C1311.27 31.3528 1311.74 30.8206 1312.34 30.438C1312.95 30.0555 1313.66 29.8642 1314.47 29.8642C1314.96 29.8642 1315.44 29.9456 1315.9 30.1085C1316.36 30.2714 1316.78 30.527 1317.14 30.8755C1317.51 31.224 1317.8 31.6767 1318.01 32.2335C1318.23 32.7865 1318.33 33.4589 1318.33 34.2505V34.8528H1311.39V33.5801H1316.67C1316.67 33.1331 1316.58 32.7373 1316.39 32.3926C1316.21 32.0441 1315.96 31.7695 1315.63 31.5687C1315.3 31.368 1314.92 31.2676 1314.48 31.2676C1314 31.2676 1313.59 31.385 1313.23 31.6199C1312.88 31.8509 1312.6 32.1539 1312.41 32.5289C1312.22 32.9002 1312.13 33.3036 1312.13 33.7392V34.7335C1312.13 35.3168 1312.23 35.813 1312.43 36.2221C1312.64 36.6312 1312.93 36.9437 1313.3 37.1596C1313.67 37.3717 1314.11 37.4778 1314.6 37.4778C1314.93 37.4778 1315.22 37.4324 1315.49 37.3414C1315.75 37.2467 1315.98 37.1066 1316.17 36.921C1316.37 36.7354 1316.51 36.5062 1316.62 36.2335L1318.22 36.5233C1318.1 36.9967 1317.86 37.4115 1317.53 37.7676C1317.2 38.1199 1316.79 38.3945 1316.29 38.5914C1315.79 38.7846 1315.22 38.8812 1314.59 38.8812ZM1320.06 38.7051V29.9778H1321.7V31.3642H1321.79C1321.95 30.8945 1322.23 30.5252 1322.63 30.2562C1323.04 29.9835 1323.49 29.8471 1324.01 29.8471C1324.11 29.8471 1324.24 29.8509 1324.38 29.8585C1324.53 29.8661 1324.64 29.8755 1324.73 29.8869V31.5119C1324.66 31.493 1324.54 31.4721 1324.36 31.4494C1324.19 31.4229 1324.02 31.4096 1323.84 31.4096C1323.44 31.4096 1323.08 31.4949 1322.77 31.6653C1322.46 31.832 1322.21 32.0649 1322.03 32.3642C1321.85 32.6596 1321.76 32.9967 1321.76 33.3755V38.7051H1320.06Z" fill="white"/>
<a href="https://b4ltasar.github.io/saibaweb/#services">
<rect fill="black" fill-opacity="0" y="3.11818" width="56.0627" height="19.3636"/>
</a>
<path d="M1357.7 28.5801V27.0687H1366.71V28.5801H1363.08V38.7051H1361.33V28.5801H1357.7ZM1370.9 38.8812C1370.04 38.8812 1369.3 38.6975 1368.68 38.3301C1368.06 37.9589 1367.58 37.438 1367.25 36.7676C1366.91 36.0933 1366.75 35.3036 1366.75 34.3983C1366.75 33.5043 1366.91 32.7164 1367.25 32.0346C1367.58 31.3528 1368.05 30.8206 1368.66 30.438C1369.26 30.0555 1369.97 29.8642 1370.78 29.8642C1371.27 29.8642 1371.75 29.9456 1372.21 30.1085C1372.67 30.2714 1373.09 30.527 1373.46 30.8755C1373.82 31.224 1374.11 31.6767 1374.33 32.2335C1374.54 32.7865 1374.64 33.4589 1374.64 34.2505V34.8528H1367.71V33.5801H1372.98C1372.98 33.1331 1372.89 32.7373 1372.71 32.3926C1372.52 32.0441 1372.27 31.7695 1371.94 31.5687C1371.61 31.368 1371.23 31.2676 1370.79 31.2676C1370.31 31.2676 1369.9 31.385 1369.54 31.6199C1369.19 31.8509 1368.92 32.1539 1368.72 32.5289C1368.53 32.9002 1368.44 33.3036 1368.44 33.7392V34.7335C1368.44 35.3168 1368.54 35.813 1368.75 36.2221C1368.95 36.6312 1369.24 36.9437 1369.62 37.1596C1369.99 37.3717 1370.42 37.4778 1370.92 37.4778C1371.24 37.4778 1371.53 37.4324 1371.8 37.3414C1372.06 37.2467 1372.29 37.1066 1372.48 36.921C1372.68 36.7354 1372.83 36.5062 1372.93 36.2335L1374.54 36.5233C1374.41 36.9967 1374.18 37.4115 1373.84 37.7676C1373.51 38.1199 1373.1 38.3945 1372.6 38.5914C1372.1 38.7846 1371.54 38.8812 1370.9 38.8812ZM1378.91 38.8983C1378.36 38.8983 1377.86 38.796 1377.41 38.5914C1376.96 38.3831 1376.61 38.082 1376.35 37.688C1376.09 37.2941 1375.96 36.8111 1375.96 36.2392C1375.96 35.7467 1376.05 35.3414 1376.24 35.0233C1376.43 34.7051 1376.69 34.4532 1377.01 34.2676C1377.33 34.082 1377.69 33.9418 1378.09 33.8471C1378.49 33.7524 1378.89 33.6805 1379.31 33.6312C1379.83 33.5706 1380.25 33.5214 1380.58 33.4835C1380.9 33.4418 1381.14 33.3755 1381.29 33.2846C1381.44 33.1937 1381.51 33.046 1381.51 32.8414V32.8017C1381.51 32.3055 1381.37 31.921 1381.09 31.6483C1380.81 31.3755 1380.4 31.2392 1379.85 31.2392C1379.28 31.2392 1378.83 31.3661 1378.5 31.6199C1378.17 31.8699 1377.95 32.1483 1377.82 32.4551L1376.23 32.0914C1376.42 31.5611 1376.69 31.1331 1377.06 30.8074C1377.42 30.4778 1377.85 30.2392 1378.32 30.0914C1378.8 29.9399 1379.3 29.8642 1379.83 29.8642C1380.18 29.8642 1380.55 29.9058 1380.94 29.9892C1381.33 30.0687 1381.7 30.2164 1382.04 30.4324C1382.38 30.6483 1382.67 30.957 1382.89 31.3585C1383.11 31.7562 1383.22 32.2733 1383.22 32.9096V38.7051H1381.56V37.5119H1381.49C1381.38 37.7316 1381.21 37.9475 1380.99 38.1596C1380.77 38.3717 1380.49 38.5479 1380.15 38.688C1379.8 38.8282 1379.39 38.8983 1378.91 38.8983ZM1379.28 37.5346C1379.75 37.5346 1380.15 37.4418 1380.48 37.2562C1380.82 37.0706 1381.08 36.8282 1381.25 36.5289C1381.43 36.2259 1381.52 35.902 1381.52 35.5574V34.4324C1381.46 34.493 1381.34 34.5498 1381.16 34.6028C1380.99 34.652 1380.8 34.6956 1380.58 34.7335C1380.36 34.7676 1380.15 34.7998 1379.94 34.8301C1379.73 34.8566 1379.55 34.8793 1379.41 34.8983C1379.08 34.9399 1378.78 35.01 1378.51 35.1085C1378.24 35.207 1378.03 35.349 1377.86 35.5346C1377.7 35.7164 1377.62 35.9589 1377.62 36.2619C1377.62 36.6824 1377.78 37.0005 1378.09 37.2164C1378.4 37.4286 1378.8 37.5346 1379.28 37.5346ZM1385.32 38.7051V29.9778H1386.95V31.3983H1387.06C1387.24 30.9172 1387.54 30.5422 1387.95 30.2733C1388.36 30.0005 1388.86 29.8642 1389.43 29.8642C1390.02 29.8642 1390.5 30.0005 1390.9 30.2733C1391.3 30.546 1391.59 30.921 1391.78 31.3983H1391.87C1392.08 30.9324 1392.41 30.5611 1392.86 30.2846C1393.32 30.0043 1393.86 29.8642 1394.49 29.8642C1395.28 29.8642 1395.93 30.1123 1396.43 30.6085C1396.93 31.1047 1397.18 31.8528 1397.18 32.8528V38.7051H1395.48V33.0119C1395.48 32.421 1395.32 31.993 1395 31.7278C1394.68 31.4627 1394.29 31.3301 1393.85 31.3301C1393.29 31.3301 1392.86 31.5005 1392.56 31.8414C1392.25 32.1786 1392.1 32.6123 1392.1 33.1426V38.7051H1390.4V32.9039C1390.4 32.4305 1390.26 32.0498 1389.96 31.7619C1389.66 31.474 1389.28 31.3301 1388.81 31.3301C1388.48 31.3301 1388.19 31.4153 1387.91 31.5858C1387.65 31.7524 1387.43 31.9854 1387.26 32.2846C1387.1 32.5839 1387.02 32.9305 1387.02 33.3244V38.7051H1385.32Z" fill="white"/>
<a href="https://b4ltasar.github.io/saibaweb/#team">
<rect fill="black" fill-opacity="0" y="3.11818" width="41.3126" height="19.3636"/>
</a>
<path d="M1431.28 38.7051V27.0687H1433.03V32.6255H1433.18L1438.06 27.0687H1440.27L1435.57 32.3074L1440.28 38.7051H1438.17L1434.41 33.5062L1433.03 35.0858V38.7051H1431.28ZM1446.59 35.0858V29.9778H1448.29V38.7051H1446.62V37.1937H1446.53C1446.33 37.6596 1446.01 38.0479 1445.57 38.3585C1445.13 38.6653 1444.58 38.8187 1443.92 38.8187C1443.36 38.8187 1442.87 38.6956 1442.44 38.4494C1442.01 38.1994 1441.67 37.8301 1441.42 37.3414C1441.18 36.8528 1441.06 36.2486 1441.06 35.5289V29.9778H1442.76V35.3244C1442.76 35.9191 1442.92 36.3926 1443.25 36.7449C1443.58 37.0971 1444.01 37.2733 1444.54 37.2733C1444.86 37.2733 1445.17 37.1937 1445.49 37.0346C1445.8 36.8755 1446.07 36.635 1446.28 36.313C1446.49 35.9911 1446.59 35.582 1446.59 35.0858ZM1452.11 33.5233V38.7051H1450.42V29.9778H1452.05V31.3983H1452.15C1452.36 30.9361 1452.67 30.5649 1453.1 30.2846C1453.53 30.0043 1454.07 29.8642 1454.73 29.8642C1455.32 29.8642 1455.84 29.9892 1456.29 30.2392C1456.74 30.4854 1457.08 30.8528 1457.33 31.3414C1457.58 31.8301 1457.7 32.4342 1457.7 33.1539V38.7051H1456V33.3585C1456 32.7259 1455.84 32.2316 1455.51 31.8755C1455.18 31.5157 1454.72 31.3358 1454.15 31.3358C1453.75 31.3358 1453.4 31.421 1453.1 31.5914C1452.79 31.7619 1452.55 32.0119 1452.38 32.3414C1452.2 32.6672 1452.11 33.0611 1452.11 33.5233ZM1463.09 38.8755C1462.38 38.8755 1461.75 38.6956 1461.2 38.3358C1460.65 37.9721 1460.22 37.4551 1459.9 36.7846C1459.59 36.1104 1459.44 35.3017 1459.44 34.3585C1459.44 33.4153 1459.59 32.6085 1459.91 31.938C1460.23 31.2676 1460.66 30.7543 1461.22 30.3983C1461.77 30.0422 1462.4 29.8642 1463.1 29.8642C1463.64 29.8642 1464.07 29.9551 1464.4 30.1369C1464.74 30.3149 1464.99 30.5233 1465.18 30.7619C1465.36 31.0005 1465.51 31.2108 1465.61 31.3926H1465.71V27.0687H1467.41V38.7051H1465.75V37.3471H1465.61C1465.51 37.5327 1465.36 37.7449 1465.16 37.9835C1464.98 38.2221 1464.71 38.4305 1464.38 38.6085C1464.05 38.7865 1463.62 38.8755 1463.09 38.8755ZM1463.46 37.4267C1463.95 37.4267 1464.36 37.2979 1464.7 37.0403C1465.04 36.7789 1465.3 36.4172 1465.47 35.9551C1465.65 35.493 1465.74 34.9551 1465.74 34.3414C1465.74 33.7354 1465.65 33.2051 1465.48 32.7505C1465.3 32.296 1465.05 31.9418 1464.71 31.688C1464.37 31.4342 1463.96 31.3074 1463.46 31.3074C1462.95 31.3074 1462.52 31.4399 1462.18 31.7051C1461.84 31.9702 1461.58 32.332 1461.41 32.7903C1461.24 33.2486 1461.15 33.7657 1461.15 34.3414C1461.15 34.9248 1461.24 35.4494 1461.41 35.9153C1461.59 36.3812 1461.85 36.7505 1462.19 37.0233C1462.53 37.2922 1462.96 37.4267 1463.46 37.4267ZM1473.44 38.8812C1472.58 38.8812 1471.83 38.6975 1471.21 38.3301C1470.6 37.9589 1470.12 37.438 1469.78 36.7676C1469.45 36.0933 1469.28 35.3036 1469.28 34.3983C1469.28 33.5043 1469.45 32.7164 1469.78 32.0346C1470.12 31.3528 1470.59 30.8206 1471.19 30.438C1471.8 30.0555 1472.51 29.8642 1473.32 29.8642C1473.81 29.8642 1474.29 29.9456 1474.75 30.1085C1475.21 30.2714 1475.62 30.527 1475.99 30.8755C1476.36 31.224 1476.65 31.6767 1476.86 32.2335C1477.07 32.7865 1477.18 33.4589 1477.18 34.2505V34.8528H1470.24V33.5801H1475.51C1475.51 33.1331 1475.42 32.7373 1475.24 32.3926C1475.06 32.0441 1474.8 31.7695 1474.48 31.5687C1474.15 31.368 1473.77 31.2676 1473.33 31.2676C1472.85 31.2676 1472.43 31.385 1472.08 31.6199C1471.73 31.8509 1471.45 32.1539 1471.26 32.5289C1471.07 32.9002 1470.98 33.3036 1470.98 33.7392V34.7335C1470.98 35.3168 1471.08 35.813 1471.28 36.2221C1471.49 36.6312 1471.78 36.9437 1472.15 37.1596C1472.52 37.3717 1472.96 37.4778 1473.45 37.4778C1473.77 37.4778 1474.07 37.4324 1474.33 37.3414C1474.6 37.2467 1474.83 37.1066 1475.02 36.921C1475.21 36.7354 1475.36 36.5062 1475.46 36.2335L1477.07 36.5233C1476.94 36.9967 1476.71 37.4115 1476.38 37.7676C1476.05 38.1199 1475.63 38.3945 1475.13 38.5914C1474.64 38.7846 1474.07 38.8812 1473.44 38.8812ZM1478.9 38.7051V29.9778H1480.55V31.3642H1480.64C1480.8 30.8945 1481.08 30.5252 1481.48 30.2562C1481.88 29.9835 1482.34 29.8471 1482.85 29.8471C1482.96 29.8471 1483.08 29.8509 1483.23 29.8585C1483.38 29.8661 1483.49 29.8755 1483.58 29.8869V31.5119C1483.51 31.493 1483.39 31.4721 1483.21 31.4494C1483.04 31.4229 1482.86 31.4096 1482.69 31.4096C1482.29 31.4096 1481.93 31.4949 1481.61 31.6653C1481.3 31.832 1481.06 32.0649 1480.88 32.3642C1480.69 32.6596 1480.6 32.9967 1480.6 33.3755V38.7051H1478.9Z" fill="white"/>
<a href="https://b4ltasar.github.io/saibaweb/#clients">
<rect fill="black" fill-opacity="0" y="3.11818" width="53.9102" height="19.3636"/>
</a>
<path d="M1516.28 38.7051V27.0687H1518.03V32.6255H1518.18L1523.06 27.0687H1525.27L1520.57 32.3074L1525.28 38.7051H1523.17L1519.41 33.5062L1518.03 35.0858V38.7051H1516.28ZM1529.64 38.8812C1528.82 38.8812 1528.11 38.6937 1527.5 38.3187C1526.89 37.9437 1526.42 37.4191 1526.08 36.7449C1525.74 36.0706 1525.57 35.2827 1525.57 34.3812C1525.57 33.4759 1525.74 32.6842 1526.08 32.0062C1526.42 31.3282 1526.89 30.8017 1527.5 30.4267C1528.11 30.0517 1528.82 29.8642 1529.64 29.8642C1530.46 29.8642 1531.17 30.0517 1531.78 30.4267C1532.39 30.8017 1532.87 31.3282 1533.21 32.0062C1533.54 32.6842 1533.71 33.4759 1533.71 34.3812C1533.71 35.2827 1533.54 36.0706 1533.21 36.7449C1532.87 37.4191 1532.39 37.9437 1531.78 38.3187C1531.17 38.6937 1530.46 38.8812 1529.64 38.8812ZM1529.65 37.4551C1530.18 37.4551 1530.62 37.3149 1530.97 37.0346C1531.31 36.7543 1531.57 36.3812 1531.74 35.9153C1531.91 35.4494 1531.99 34.9361 1531.99 34.3755C1531.99 33.8187 1531.91 33.3074 1531.74 32.8414C1531.57 32.3717 1531.31 31.9949 1530.97 31.7108C1530.62 31.4267 1530.18 31.2846 1529.65 31.2846C1529.11 31.2846 1528.67 31.4267 1528.32 31.7108C1527.97 31.9949 1527.71 32.3717 1527.54 32.8414C1527.37 33.3074 1527.29 33.8187 1527.29 34.3755C1527.29 34.9361 1527.37 35.4494 1527.54 35.9153C1527.71 36.3812 1527.97 36.7543 1528.32 37.0346C1528.67 37.3149 1529.11 37.4551 1529.65 37.4551ZM1537.15 33.5233V38.7051H1535.45V29.9778H1537.08V31.3983H1537.19C1537.39 30.9361 1537.7 30.5649 1538.13 30.2846C1538.56 30.0043 1539.1 29.8642 1539.76 29.8642C1540.35 29.8642 1540.88 29.9892 1541.32 30.2392C1541.77 30.4854 1542.12 30.8528 1542.36 31.3414C1542.61 31.8301 1542.73 32.4342 1542.73 33.1539V38.7051H1541.03V33.3585C1541.03 32.7259 1540.87 32.2316 1540.54 31.8755C1540.21 31.5157 1539.76 31.3358 1539.18 31.3358C1538.79 31.3358 1538.44 31.421 1538.13 31.5914C1537.83 31.7619 1537.59 32.0119 1537.41 32.3414C1537.23 32.6672 1537.15 33.0611 1537.15 33.5233ZM1548.92 29.9778V31.3414H1544.16V29.9778H1548.92ZM1545.43 27.8869H1547.13V36.1426C1547.13 36.4721 1547.18 36.7202 1547.28 36.8869C1547.38 37.0498 1547.51 37.1615 1547.66 37.2221C1547.82 37.2789 1547.99 37.3074 1548.18 37.3074C1548.32 37.3074 1548.43 37.2979 1548.54 37.2789C1548.64 37.26 1548.72 37.2449 1548.78 37.2335L1549.08 38.6369C1548.98 38.6748 1548.84 38.7127 1548.66 38.7505C1548.48 38.7922 1548.25 38.8149 1547.98 38.8187C1547.53 38.8263 1547.12 38.7467 1546.73 38.5801C1546.34 38.4134 1546.03 38.1558 1545.79 37.8074C1545.55 37.4589 1545.43 37.0214 1545.43 36.4949V27.8869ZM1553.18 38.8983C1552.63 38.8983 1552.13 38.796 1551.68 38.5914C1551.24 38.3831 1550.88 38.082 1550.62 37.688C1550.36 37.2941 1550.23 36.8111 1550.23 36.2392C1550.23 35.7467 1550.33 35.3414 1550.52 35.0233C1550.71 34.7051 1550.96 34.4532 1551.28 34.2676C1551.61 34.082 1551.97 33.9418 1552.36 33.8471C1552.76 33.7524 1553.17 33.6805 1553.58 33.6312C1554.1 33.5706 1554.53 33.5214 1554.85 33.4835C1555.18 33.4418 1555.42 33.3755 1555.56 33.2846C1555.71 33.1937 1555.78 33.046 1555.78 32.8414V32.8017C1555.78 32.3055 1555.64 31.921 1555.36 31.6483C1555.09 31.3755 1554.67 31.2392 1554.13 31.2392C1553.55 31.2392 1553.1 31.3661 1552.77 31.6199C1552.45 31.8699 1552.22 32.1483 1552.1 32.4551L1550.5 32.0914C1550.69 31.5611 1550.97 31.1331 1551.33 30.8074C1551.7 30.4778 1552.12 30.2392 1552.6 30.0914C1553.07 29.9399 1553.58 29.8642 1554.1 29.8642C1554.45 29.8642 1554.82 29.9058 1555.21 29.9892C1555.6 30.0687 1555.97 30.2164 1556.31 30.4324C1556.66 30.6483 1556.94 30.957 1557.16 31.3585C1557.38 31.7562 1557.49 32.2733 1557.49 32.9096V38.7051H1555.83V37.5119H1555.76C1555.65 37.7316 1555.49 37.9475 1555.27 38.1596C1555.05 38.3717 1554.77 38.5479 1554.42 38.688C1554.08 38.8282 1553.66 38.8983 1553.18 38.8983ZM1553.55 37.5346C1554.02 37.5346 1554.42 37.4418 1554.76 37.2562C1555.09 37.0706 1555.35 36.8282 1555.52 36.5289C1555.7 36.2259 1555.79 35.902 1555.79 35.5574V34.4324C1555.73 34.493 1555.61 34.5498 1555.44 34.6028C1555.27 34.652 1555.07 34.6956 1554.85 34.7335C1554.63 34.7676 1554.42 34.7998 1554.21 34.8301C1554 34.8566 1553.83 34.8793 1553.69 34.8983C1553.36 34.9399 1553.06 35.01 1552.78 35.1085C1552.52 35.207 1552.3 35.349 1552.14 35.5346C1551.98 35.7164 1551.9 35.9589 1551.9 36.2619C1551.9 36.6824 1552.05 37.0005 1552.36 37.2164C1552.67 37.4286 1553.07 37.5346 1553.55 37.5346ZM1561.15 35.7449L1561.14 33.671H1561.44L1564.92 29.9778H1566.95L1562.98 34.1824H1562.72L1561.15 35.7449ZM1559.59 38.7051V27.0687H1561.29V38.7051H1559.59ZM1565.1 38.7051L1561.98 34.5574L1563.15 33.3699L1567.19 38.7051H1565.1ZM1572.41 29.9778V31.3414H1567.65V29.9778H1572.41ZM1568.92 27.8869H1570.62V36.1426C1570.62 36.4721 1570.67 36.7202 1570.77 36.8869C1570.87 37.0498 1571 37.1615 1571.15 37.2221C1571.31 37.2789 1571.48 37.3074 1571.67 37.3074C1571.8 37.3074 1571.92 37.2979 1572.03 37.2789C1572.13 37.26 1572.21 37.2449 1572.26 37.2335L1572.57 38.6369C1572.47 38.6748 1572.33 38.7127 1572.15 38.7505C1571.97 38.7922 1571.74 38.8149 1571.47 38.8187C1571.02 38.8263 1570.61 38.7467 1570.22 38.5801C1569.83 38.4134 1569.52 38.1558 1569.28 37.8074C1569.04 37.4589 1568.92 37.0214 1568.92 36.4949V27.8869Z" fill="white"/>
<a href="https://b4ltasar.github.io/saibaweb/#contact">
<rect fill="black" fill-opacity="0" y="3.11818" width="58.1451" height="19.3636"/>
</a>
<rect x="1815.5" y="21.2051" width="42" height="28.59" rx="5.5" stroke="white"/>
<path d="M1829.36 40.0049V31.2776H1834.83V32.4111H1830.68V35.0702H1834.55V36.1995H1830.68V38.8714H1834.88V40.0049H1829.36ZM1843.64 31.2776V40.0049H1842.43L1837.99 33.6043H1837.91V40.0049H1836.59V31.2776H1837.81L1842.25 37.6867H1842.33V31.2776H1843.64Z" fill="white"/>
</svg>
