<svg width="140" height="27" viewBox="0 0 140 27" fill="none" xmlns="http://www.w3.org/2000/svg">
<path d="M130.616 20.8589H115.459L112.909 25.9939H106.782L119.673 0.708496H126.578L139.398 25.9939H133.165L130.616 20.8589ZM128.42 16.4322L123.108 5.73725H122.966L117.654 16.4322H128.42Z" fill="white"/>
<path d="M101.279 12.4659C102.483 12.8436 103.427 13.5165 104.112 14.4844C104.82 15.4288 105.174 16.8454 105.174 18.7341C105.174 21.1894 104.478 23.0191 103.085 24.2232C101.692 25.4037 99.4964 25.9939 96.498 25.9939H77.1621V0.708496H96.1084C101.562 0.708496 104.289 2.88054 104.289 7.22462C104.289 8.57034 104.029 9.66817 103.51 10.5181C102.991 11.368 102.247 11.9583 101.279 12.2888V12.4659ZM94.7627 10.9431C95.9432 10.9431 96.8049 10.707 97.3479 10.2348C97.9146 9.739 98.1979 8.9835 98.1979 7.96831C98.1979 6.92951 97.9146 6.17402 97.3479 5.70183C96.8049 5.22965 95.9432 4.99356 94.7627 4.99356H82.7575V10.9431H94.7627ZM95.1169 21.7088C96.4862 21.7088 97.4778 21.4373 98.0916 20.8943C98.7291 20.3513 99.0478 19.4896 99.0478 18.3091C99.0478 17.1287 98.7291 16.2669 98.0916 15.7239C97.4778 15.1573 96.4862 14.874 95.1169 14.874H82.7575V21.7088H95.1169Z" fill="white"/>
<path d="M66.1299 25.9939V0.708496H71.7253V25.9939H66.1299Z" fill="white"/>
<path d="M54.1508 20.8589H38.9937L36.444 25.9939H30.3174L43.208 0.708496H50.1137L62.9334 25.9939H56.7006L54.1508 20.8589ZM51.9552 16.4322L46.6431 5.73725H46.5015L41.1894 16.4322H51.9552Z" fill="white"/>
<path d="M21.6378 8.35764C21.5197 6.82304 20.7997 5.74883 19.4775 5.13499C18.179 4.52115 16.3257 4.21423 13.9176 4.21423C9.40825 4.21423 7.15357 5.30026 7.15357 7.4723C7.15357 8.34584 7.46049 8.97148 8.07433 9.34922C8.68817 9.72697 9.67975 9.98667 11.0491 10.1283L20.6108 10.9783C23.255 11.2143 25.2736 11.9108 26.6665 13.0677C28.0595 14.2009 28.7559 15.9834 28.7559 18.4151C28.7559 21.4371 27.5401 23.5737 25.1083 24.825C22.6766 26.0763 19.088 26.702 14.3426 26.702C9.73877 26.702 6.22101 26.0291 3.78927 24.6834C1.35753 23.314 0.0944366 20.9177 0 17.4944H6.26823C6.40988 19.3831 7.16538 20.6816 8.53471 21.3899C9.92765 22.0746 11.9344 22.4169 14.555 22.4169C19.7254 22.4169 22.3106 21.2128 22.3106 18.8047C22.3106 17.7659 21.9801 17.0222 21.3191 16.5736C20.6816 16.125 19.7372 15.8417 18.486 15.7237L8.95967 14.7675C6.29184 14.5078 4.26145 13.8468 2.86851 12.7844C1.49918 11.7219 0.814516 10.0693 0.814516 7.82643C0.814516 2.60881 5.22943 0 14.0592 0C18.3561 0 21.7086 0.637447 24.1167 1.91234C26.5485 3.18723 27.8116 5.33567 27.906 8.35764H21.6378Z" fill="white"/>
</svg>
