<svg width="165" height="165" viewBox="0 0 165 165" fill="none" xmlns="http://www.w3.org/2000/svg">
<path d="M73.4317 120.165C71.3585 117.809 71.4963 114.192 73.796 111.95L89.1575 96.6266C93.9052 91.6073 95.3716 88.7164 90.0373 83.0496L85.8762 78.9242C83.308 76.3439 82.9621 72.3552 85.5738 69.7566L96.017 59.3657C98.6286 56.7671 102.828 56.7523 105.396 59.3327L123.066 77.087C125.635 79.6674 125.599 83.8658 122.988 86.4644L112.544 96.8552L84.9071 123.838C82.5332 126.153 78.5464 125.422 76.2591 123.076L73.6392 120.389L73.4317 120.165Z" fill="black"/>
<path d="M96.2662 59.1295C98.8893 56.7685 102.908 56.833 105.396 59.3328L123.066 77.0873C125.634 79.6677 125.599 83.8657 122.987 86.4642L112.544 96.8555L84.9072 123.838L84.6799 124.046C82.3629 126.039 78.7196 125.395 76.4787 123.291L76.2593 123.077L73.6393 120.389L73.4319 120.165C71.3587 117.809 71.4964 114.193 73.7962 111.95L89.1578 96.6266C93.9053 91.6074 95.3718 88.7162 90.0376 83.0494L85.8764 78.9241C83.3885 76.4244 82.9858 72.6031 85.3374 70.0042L85.5737 69.7567L96.0172 59.3659L96.2662 59.1295ZM76.7369 122.611C77.7775 123.678 79.2086 124.378 80.6365 124.546C82.0577 124.714 83.4324 124.354 84.4462 123.366L112.079 96.388L122.523 85.9973C124.873 83.6585 124.905 79.8799 122.593 77.5577L104.923 59.8031C102.612 57.4808 98.8321 57.4942 96.4816 59.8329L86.039 70.2237C83.7393 72.5118 83.9858 76.0761 86.3463 78.4506L90.5071 82.5763L90.5152 82.5837L90.5228 82.5925C93.2254 85.4636 94.3724 87.7988 94.0351 90.1667C93.7074 92.4661 91.9913 94.5901 89.6371 97.079L89.6305 97.0863L89.6231 97.0936L74.262 112.416L74.2564 112.422C72.2124 114.415 72.0897 117.629 73.932 119.724L74.1286 119.936L76.7369 122.611Z" fill="black"/>
<path d="M90.774 44.3225C92.8472 46.6793 92.7095 50.2954 90.4097 52.5381L75.0482 67.8612C70.3005 72.8805 68.8341 75.7713 74.1684 81.4382L78.3295 85.5636C80.8977 88.1439 81.2436 92.1326 78.632 94.7312L68.1887 105.122C65.5771 107.721 61.378 107.735 58.8098 105.155L41.1394 87.4008C38.5712 84.8204 38.6065 80.622 41.2181 78.0234L51.6613 67.6326L79.2987 40.6499C81.6725 38.335 85.6593 39.0655 87.9466 41.4114L90.5665 44.0986L90.774 44.3225Z" fill="black"/>
<path d="M67.9391 105.359C65.3159 107.72 61.2969 107.655 58.809 105.155L41.1388 87.401C38.5708 84.8206 38.6063 80.6226 41.2179 78.0241L51.6609 67.6328L79.298 40.6502L79.5253 40.442C81.8423 38.4491 85.4856 39.0937 87.7265 41.1969L87.946 41.4117L90.5659 44.0989L90.7733 44.3228C92.8465 46.6796 92.7088 50.2957 90.409 52.5384L75.0475 67.8617C70.2999 72.8809 68.8334 75.772 74.1677 81.4388L78.3289 85.5641C80.8167 88.0638 81.2194 91.8852 78.8678 94.4841L78.6315 94.7316L68.188 105.122L67.9391 105.359ZM87.4684 41.8774C86.4278 40.8103 84.9966 40.1105 83.5687 39.9419C82.1475 39.7741 80.7728 40.134 79.7591 41.1222L52.1258 68.1003L41.6823 78.491C39.3319 80.8298 39.3006 84.6083 41.6119 86.9306L59.2821 104.685C61.5935 107.007 65.3731 106.994 67.7236 104.655L78.1662 94.2646C80.4659 91.9764 80.2194 88.4122 77.8589 86.0377L73.6982 81.912L73.6901 81.9046L73.6824 81.8958C70.9799 79.0247 69.8329 76.6895 70.1702 74.3216C70.4978 72.0221 72.214 69.8981 74.5681 67.4092L74.5747 67.402L74.5822 67.3947L89.9432 52.0719L89.9488 52.0664C91.9929 50.0732 92.1155 46.8591 90.2732 44.7646L90.0766 44.5527L87.4684 41.8774Z" fill="black"/>
</svg>
